<?xml version="1.0" encoding="utf-8"?>
<!-- Generated by IcoMoon.io -->
<!DOCTYPE svg PUBLIC "-//W3C//DTD SVG 1.1//EN" "http://www.w3.org/Graphics/SVG/1.1/DTD/svg11.dtd">
<svg version="1.1" xmlns="http://www.w3.org/2000/svg" xmlns:xlink="http://www.w3.org/1999/xlink" width="109" height="32" viewBox="0 0 109 32">
<path fill="#fff" d="M52.668 10.797c-0.529 0-0.936 0.251-1.178 0.725l-4.837 13.183-4.66-13.043c-0.144-0.4-0.489-0.876-1.32-0.876-0.425 0-0.776 0.172-1.015 0.499-0.224 0.306-0.333 0.584-0.333 0.85l0.021 14.268c0 0.16 0.056 0.682 0.777 0.682 0.369 0 0.608-0.239 0.608-0.608l0-14.028 5.116 14.073c0.057 0.166 0.233 0.445 0.76 0.445 0.574 0 0.797-0.272 0.885-0.504l5.16-14.085v14.066c0 0.414 0.273 0.671 0.713 0.671s0.713-0.266 0.713-0.692v-14.374c0-0.348-0.155-0.661-0.447-0.903-0.28-0.232-0.604-0.349-0.964-0.349z"></path>
<path fill="#fff" d="M63.957 10.879c-0.168-0.374-0.464-0.579-0.835-0.579s-0.646 0.18-0.774 0.501l-6.531 15.37c-0.074 0.198 0.023 0.397 0.103 0.53 0.091 0.151 0.283 0.332 0.686 0.332 0.391 0 0.577-0.188 0.665-0.345l2.062-4.827h7.816l2.286 4.978 0.11 0.045c0.629 0.257 1.079 0.069 1.171-0.389 0.054-0.267 0.052-0.408 0.001-0.51l-6.76-15.105zM66.615 20.475h-6.795l3.301-7.853 3.494 7.853z"></path>
<path fill="#fff" d="M85.664 11.799l0.019-0.028c0.051-0.086 0.075-0.196 0.075-0.356 0-0.421-0.281-0.682-0.734-0.682-0.204 0-0.379 0.081-0.515 0.246l-4.757 6.295-4.529-6.326c-0.094-0.137-0.276-0.299-0.608-0.299-0.459 0-0.745 0.277-0.745 0.724 0 0.114 0.027 0.231 0.080 0.347l4.896 6.77-6.006 7.245c-0.115 0.137-0.175 0.303-0.175 0.478 0 0.169 0.060 0.339 0.178 0.503 0.175 0.244 0.376 0.295 0.514 0.295 0.232 0 0.463-0.144 0.732-0.461l5.627-6.996 5.427 7.252c0.085 0.113 0.246 0.247 0.537 0.247 0.471 0 0.763-0.247 0.795-0.666l-5.853-7.97 5.044-6.618z"></path>
<path fill="#fff" d="M89.601 11.104c-0.334 0-0.692 0.201-0.692 0.766v14.364c0 0.459 0.265 0.745 0.692 0.745 0.446 0 0.724-0.294 0.724-0.766v-14.343c0-0.473-0.277-0.766-0.724-0.766z"></path>
<path fill="#fff" d="M108.684 11.146c-0.28-0.232-0.604-0.349-0.964-0.349-0.529 0-0.936 0.251-1.178 0.725l-4.837 13.183-4.66-13.043c-0.144-0.4-0.49-0.876-1.32-0.876-0.425 0-0.776 0.172-1.015 0.499-0.224 0.306-0.333 0.584-0.333 0.85l0.021 14.268c0 0.16 0.056 0.682 0.777 0.682 0.369 0 0.607-0.239 0.607-0.608l0-14.027 5.116 14.073c0.058 0.166 0.233 0.445 0.76 0.445 0.574 0 0.797-0.272 0.885-0.504l5.16-14.085v14.066c0 0.414 0.273 0.671 0.713 0.671s0.713-0.266 0.713-0.692v-14.374c0-0.348-0.154-0.661-0.447-0.903z"></path>
<path fill="#2280bc" d="M16 0c-8.837 0-16 7.163-16 16 0 4.381 1.763 8.35 4.616 11.24v-17.445c0-0.020 0.002-0.038 0.002-0.057-0.002-0.069 0.002-0.137 0.008-0.205 0.001-0.008 0.002-0.015 0.003-0.023 0.003-0.029 0.006-0.058 0.011-0.087 0.139-1.157 0.928-1.613 1.702-1.649 0.002 0 0.005 0 0.006 0 0.032-0.002 0.065-0.004 0.097-0.004 0.016 0 0.030 0.002 0.045 0.002 0.025 0 0.050 0.002 0.076 0.003 0.475 0.022 0.872 0.174 1.17 0.437l10.547 6.907 6.028-5.484c0.155-0.14 0.308-0.252 0.459-0.342 0.111-0.072 0.228-0.13 0.35-0.173l0.002-0.001c0.030-0.011 0.060-0.019 0.090-0.028 0.183-0.059 0.361-0.086 0.532-0.084 0.020-0.001 0.039-0.002 0.058-0.002 1.18 0 1.913 0.776 1.913 2.026v11.735c0 1.249-0.733 2.025-1.913 2.025-1.129 0-1.83-0.755-1.83-1.97v-7.815l-4.071 3.704c-0.426 0.387-0.882 0.588-1.327 0.61-0.016 0.001-0.033 0.001-0.049 0.002-0.030 0.001-0.061 0.002-0.091 0.001-0.375-0.006-0.774-0.137-1.173-0.398l-8.901-5.829v16.968c2.271 1.236 4.874 1.939 7.641 1.939 8.837 0 16-7.163 16-16s-7.163-16-16-16z"></path>
</svg>
