<?xml version="1.0" encoding="utf-8"?>
<!-- Generated by IcoMoon.io -->
<!DOCTYPE svg PUBLIC "-//W3C//DTD SVG 1.1//EN" "http://www.w3.org/Graphics/SVG/1.1/DTD/svg11.dtd">
<svg version="1.1" xmlns="http://www.w3.org/2000/svg" xmlns:xlink="http://www.w3.org/1999/xlink" width="32" height="32" viewBox="0 0 32 32">
<path fill="#2280bc" d="M16.006 0c-8.84 0-16.006 7.166-16.006 16.006 0 4.384 1.764 8.354 4.618 11.244v-17.452c0-0.020 0.002-0.038 0.002-0.058 0-0.068 0-0.136 0.006-0.204 0.004-0.008 0.004-0.016 0.004-0.024 0.002-0.028 0.006-0.056 0.012-0.086 0.138-1.158 0.928-1.614 1.704-1.65 0.002 0 0.002 0 0.004 0 0.034-0.002 0.066-0.004 0.096-0.004 0.016 0 0.030 0.002 0.046 0.002 0.024 0 0.050 0.002 0.074 0.004 0.476 0.020 0.874 0.174 1.172 0.436l10.55 6.908 6.030-5.486c0.156-0.14 0.308-0.25 0.46-0.342 0.112-0.072 0.226-0.128 0.346-0.172h0.004c0.030-0.010 0.062-0.020 0.092-0.030 0.18-0.058 0.362-0.086 0.53-0.084 0.022 0 0.042-0.002 0.058-0.002 1.18 0 1.914 0.776 1.914 2.026v11.742c0 1.246-0.734 2.024-1.914 2.024-1.128 0-1.832-0.752-1.832-1.97v-7.82l-4.068 3.706c-0.428 0.388-0.884 0.59-1.328 0.61-0.016 0-0.032 0-0.048 0-0.030 0.004-0.062 0.004-0.092 0.004-0.376-0.008-0.774-0.138-1.174-0.396l-8.904-5.834v16.976c2.272 1.234 4.876 1.938 7.644 1.938 8.84 0 16.004-7.164 16.004-16.004 0.002-8.842-7.162-16.008-16.004-16.008z"></path>
</svg>
